<svg width="139" height="40" viewBox="0 0 139 40" fill="none" xmlns="http://www.w3.org/2000/svg">
<path d="M66.6532 30.9969H62.3808C62.3616 30.9969 62.3501 30.993 62.3387 30.9796L58.6575 26.4834L54.9725 30.9796C54.9648 30.993 54.9514 30.9969 54.9323 30.9969H51.5113C51.4902 30.9969 51.4749 30.9873 51.4596 30.9643C51.4539 30.9509 51.4539 30.9261 51.4673 30.9108L56.8896 24.2506L51.5304 17.6535C51.5151 17.6305 51.5151 17.6114 51.5209 17.5904C51.5304 17.5789 51.5515 17.5597 51.5687 17.5597H55.843C55.8564 17.5597 55.8717 17.5674 55.8832 17.5865L59.1128 21.5892L62.3999 17.5846C62.4095 17.5674 62.4248 17.5597 62.4401 17.5597H65.9242C65.9452 17.5597 65.9663 17.5789 65.9739 17.5904C65.9835 17.6114 65.9797 17.6344 65.9663 17.6535L60.8788 23.7627L66.6895 30.9108C66.7048 30.9261 66.7106 30.9509 66.6991 30.9643C66.6895 30.9873 66.6704 30.9969 66.6532 30.9969Z" fill="white"/>
<path d="M89.7771 19.9288C87.8848 19.9288 86.5933 21.0768 86.2241 23.0723H92.6604V22.9441C92.6604 21.3465 91.4837 19.9288 89.7771 19.9288ZM95.98 25.1196C95.9704 25.1349 95.9513 25.1444 95.9341 25.1444H86.1552C86.358 27.4213 87.837 28.7185 90.2305 28.7185C91.7038 28.7185 93.2688 28.2153 95.4806 27.0386C95.5208 27.0156 95.561 27.0501 95.561 27.0922L95.5571 30.0999C95.5533 30.1247 95.5418 30.1401 95.5246 30.1458C93.4678 31.0125 91.4015 31.6037 89.7771 31.6037C85.5659 31.6037 82.5142 28.5348 82.5142 24.3083C82.5142 20.0818 85.5659 17.0129 89.7771 17.0129C93.619 17.0129 96.0871 19.6016 96.0871 23.1622C96.0871 23.7382 95.9876 25.0775 95.98 25.1196Z" fill="white"/>
<path d="M115.845 14.7859C114.645 14.7859 113.67 13.8254 113.67 12.643C113.67 11.4261 114.645 10.4408 115.845 10.4408C117.045 10.4408 118.022 11.4261 118.022 12.643C118.022 13.8254 117.045 14.7859 115.845 14.7859ZM114.089 30.9973C114.054 30.9973 114.033 30.9762 114.033 30.9418V17.6157C114.033 17.5889 114.052 17.5678 114.075 17.5621H117.607C117.636 17.5678 117.651 17.5889 117.651 17.6157V30.9418C117.651 30.9762 117.628 30.9973 117.599 30.9973H114.089Z" fill="white"/>
<path d="M73.1128 28.9902C72.4756 28.9902 71.8232 28.9003 71.0732 28.6994L71.0808 20.1507C71.9591 19.8714 72.7225 19.7394 73.4782 19.7394C75.9272 19.7394 77.5708 21.5455 77.5708 24.228C77.5708 27.1209 75.8201 28.9902 73.1128 28.9902ZM74.0733 17.0148C73.0764 17.0148 72.07 17.1966 71.0139 17.5601H67.4991C67.4704 17.5601 67.4494 17.585 67.4494 17.6156V39.4693C68.5113 39.3239 69.8123 38.9451 71.0751 38.0458L71.0732 31.399C71.9399 31.5215 72.6555 31.6038 73.3462 31.6038C78.1601 31.6038 81.2749 28.7185 81.2749 24.2509C81.2749 19.9919 78.3112 17.0148 74.0733 17.0148Z" fill="white"/>
<path d="M107.657 27.8836C106.557 28.4614 105.574 28.735 104.65 28.735C102.47 28.735 101.163 27.1948 101.163 24.6156C101.163 21.6309 102.832 19.7004 105.411 19.7004C106.123 19.7004 106.815 19.8745 107.657 20.2552V27.8836ZM107.657 10.5051V17.4809C106.626 17.1863 105.717 17.0505 104.801 17.0505C100.612 17.0505 97.4498 20.2074 97.4498 24.4014C97.4498 28.5762 100.239 31.603 104.077 31.603C105.407 31.603 106.651 31.2701 108.115 30.5163L108.113 31.7197C109.079 31.536 110.189 31.1496 111.283 30.3747V9.07773C110.208 9.22123 108.933 9.58093 107.657 10.5051Z" fill="white"/>
<path d="M129.888 27.8572C128.824 28.4713 127.912 28.766 127.097 28.766C124.762 28.766 123.364 27.2315 123.364 24.6428C123.364 21.7021 125.011 19.7295 127.46 19.7295C128.116 19.7295 128.912 19.9801 129.888 20.4967V27.8572ZM133.518 17.3991C133.518 17.3168 133.447 17.2517 133.366 17.2517L130.512 17.2556C130.428 17.2556 130.357 17.3283 130.357 17.4086V17.8946H130.284C128.966 17.3168 127.843 17.0509 126.735 17.0509C122.786 17.0509 119.69 20.3245 119.69 24.5204C119.69 28.7622 122.461 31.6053 126.584 31.6053C127.688 31.6053 129.102 31.5288 130.426 30.0058V31.7201C131.361 31.5211 132.465 31.1232 133.514 30.3693L133.518 17.3991Z" fill="white"/>
<path d="M41.7392 27.6623L50.6054 27.6585C50.4715 28.6496 50.1367 29.8091 49.3675 30.9915H41.7602H40.2449H40.1435C39.0147 30.9915 38.0867 30.1171 37.9757 29.0112C37.97 28.994 37.9643 28.9787 37.9623 28.9634V19.8829V11.4777C37.9643 11.4643 37.97 11.4452 37.9757 11.4337C38.0867 10.3259 39.0147 9.44772 40.1435 9.44772C40.1799 9.44772 40.2143 9.45155 40.2449 9.45155L50.5863 9.44964C50.4505 10.4388 50.1156 11.6289 49.3484 12.8075H41.7392V17.5678H49.2719C49.3025 17.5678 49.3254 17.5888 49.3254 17.6194V20.9218C49.3254 20.9486 49.3025 20.9734 49.2719 20.9734H41.7392V27.6585V27.6623Z" fill="white"/>
<path d="M30.6406 31.2691C29.7643 31.2691 29.2228 30.5842 29.2228 29.7461C29.2228 28.8488 29.8427 28.2231 30.6406 28.2231C31.4308 28.2231 32.0488 28.8488 32.0488 29.7461C32.0488 30.6454 31.4308 31.2691 30.6406 31.2691ZM30.6406 28.0509C29.7432 28.0509 28.976 28.7263 28.976 29.7461C28.976 30.7104 29.6686 31.4356 30.6406 31.4356C31.5264 31.4356 32.2975 30.764 32.2975 29.7461C32.2975 28.7263 31.5264 28.0509 30.6406 28.0509Z" fill="white"/>
<path d="M30.2428 29.6069V28.9889H30.6599C30.8703 28.9889 31.1191 29.0214 31.1191 29.2778C31.1191 29.582 30.8895 29.6069 30.6273 29.6069H30.2428ZM31.4271 29.3179C31.4271 28.9142 31.1784 28.742 30.6962 28.742H29.9366V30.7453H30.2676V29.8881H30.5738L31.0923 30.7453H31.4654L30.9029 29.8652C31.2071 29.8288 31.4271 29.6815 31.4271 29.3179Z" fill="white"/>
<path d="M136.433 19.7784C135.557 19.7784 135.011 19.0935 135.011 18.2554C135.011 17.3581 135.633 16.7325 136.433 16.7325C137.221 16.7325 137.841 17.3581 137.841 18.2554C137.841 19.1547 137.221 19.7784 136.433 19.7784ZM136.433 16.5603C135.536 16.5603 134.768 17.2357 134.768 18.2554C134.768 19.2197 135.459 19.9449 136.433 19.9449C137.317 19.9449 138.086 19.2714 138.086 18.2554C138.086 17.2357 137.317 16.5603 136.433 16.5603Z" fill="white"/>
<path d="M136.033 18.1152V17.4991H136.45C136.661 17.4991 136.91 17.5297 136.91 17.7861C136.91 18.0922 136.678 18.1152 136.42 18.1152H136.033ZM137.218 17.8263C137.218 17.4226 136.969 17.2504 136.487 17.2504H135.727V19.2536H136.054V18.3984H136.364L136.883 19.2536H137.254L136.693 18.3735C136.996 18.339 137.218 18.1898 137.218 17.8263Z" fill="white"/>
<path d="M19.2039 12.7912L18.561 10.9717L13.1081 3.68394L14.0877 3.44095L23.4896 11.5686L29.0229 9.98635C29.6734 9.81798 30.412 9.78163 30.9745 9.78545C29.2353 6.03538 26.0535 2.95688 21.8519 1.46068C13.5462 -1.49919 4.41405 2.84017 1.45991 11.1496C0.545352 13.7192 0.327237 16.371 0.71181 18.8928L13.9672 14.2874L19.2039 12.7912Z" fill="white"/>
<path d="M31.5568 11.2217C31.0708 11.5374 30.3572 11.9507 29.6493 12.1784L24.1045 13.7607L20.4042 25.6384L19.4437 25.9503L20.2243 16.8793L19.7881 14.9947L14.5916 16.4775L0.85791 19.711C1.94466 24.9975 5.68708 29.6009 11.1419 31.5448C19.4494 34.5047 28.5778 30.1634 31.5319 21.8597C32.8062 18.2799 32.7239 14.5451 31.5568 11.2217Z" fill="white"/>
<path d="M19.7878 14.996L20.2259 16.8787L19.4434 25.9496L20.4038 25.6378L24.1042 13.7619L29.6489 12.1796C30.3568 11.9519 31.0705 11.5348 31.5565 11.223C31.3862 10.7351 31.191 10.2548 30.9748 9.78609C30.4123 9.78226 29.6738 9.82053 29.0233 9.98507L23.49 11.5712L14.0861 3.43967L13.1084 3.68457L18.5594 10.9723L19.2042 12.79L13.9656 14.29L0.712158 18.8915C0.754251 19.167 0.802084 19.4406 0.857569 19.7123L14.5932 16.4788L19.7878 14.996Z" fill="#222831"/>
</svg>
