<svg width="36" height="30" viewBox="0 0 36 30" fill="none" xmlns="http://www.w3.org/2000/svg">
<path d="M10.432 14.0398H13.3428V16.4542H10.432V14.0398ZM10.432 18.8685H13.3428V21.2829H10.432V18.8685ZM16.2536 14.0398H19.1644V16.4542H16.2536V14.0398ZM16.2536 18.8685H19.1644V21.2829H16.2536V18.8685ZM22.0752 14.0398H24.986V16.4542H22.0752V14.0398ZM22.0752 18.8685H24.986V21.2829H22.0752V18.8685Z" fill="black"/>
<path d="M7.52121 27.3187H27.8968C29.5021 27.3187 30.8076 26.2359 30.8076 24.9044V8.00396C30.8076 6.67245 29.5021 5.58962 27.8968 5.58962H24.986V3.17528H22.0752V5.58962H13.3428V3.17528H10.432V5.58962H7.52121C5.91591 5.58962 4.61041 6.67245 4.61041 8.00396V24.9044C4.61041 26.2359 5.91591 27.3187 7.52121 27.3187ZM27.8968 10.4183L27.8983 24.9044H7.52121V10.4183H27.8968Z" fill="black"/>
</svg>
